<?xml version="1.0"?>
<svg version="1.1" xmlns="http://www.w3.org/2000/svg" width="158px" height="40px" style=""><path fill="#80f700" d="M10,26.76c0,2.78-2.26,4.28-4.86,4.28c-1.2,0-2.62-0.22-3.82-0.64c-0.26-0.1-0.34-0.22-0.34-0.38c0-0.08,0-0.16,0.04-0.26l0.42-1.3c0.06-0.2,0.16-0.32,0.36-0.32c0.08,0,0.18,0.02,0.3,0.06c0.94,0.34,1.98,0.6,2.98,0.6c1.08,0,2.3-0.52,2.3-1.78c0-0.92-0.68-1.42-1.46-1.8l-2.6-1.3c-1.42-0.7-2.36-1.88-2.36-3.44c0-2.44,2.4-3.78,4.62-3.78c1.32,0,2.42,0.2,3.58,0.7c0.26,0.12,0.4,0.24,0.4,0.4c0,0.08-0.02,0.16-0.06,0.26l-0.48,1.22c-0.08,0.22-0.2,0.3-0.34,0.3c-0.1,0-0.2-0.04-0.32-0.08c-0.82-0.34-1.84-0.62-2.64-0.62c-0.94,0-2.02,0.4-2.02,1.52c0,0.82,0.76,1.3,1.42,1.62l2.22,1.08c1.58,0.76,2.66,1.82,2.66,3.66z M21.87,30.24c0,0.42-0.12,0.56-0.52,0.56l-1.28,0c-0.26,0-0.46-0.14-0.48-0.4l-0.02-0.5c-0.92,0.74-2.02,1.14-3.18,1.14c-2.24,0-3.16-1.42-3.16-3.58l0-5.9c0-0.34,0.2-0.46,0.52-0.46l1.4,0c0.32,0,0.5,0.1,0.5,0.46l0,5.48c0,1.1,0.28,1.86,1.48,1.86c0.76,0,1.72-0.42,2.32-0.96l0-6.38c0-0.34,0.18-0.46,0.5-0.46l1.42,0c0.32,0,0.5,0.1,0.5,0.46l0,8.68z M40.04,30.3c0,0.36-0.14,0.5-0.48,0.5l-1.4,0c-0.36,0-0.52-0.14-0.52-0.5l0-5.48c0-1.08-0.28-1.9-1.5-1.9c-0.76,0-1.64,0.4-2.26,0.9c0.04,0.18,0.08,2.86,0.08,3.14l0,3.34c0,0.36-0.14,0.5-0.48,0.5l-1.32,0c-0.36,0-0.52-0.14-0.52-0.5l0-5.48c0-1.06-0.22-1.9-1.44-1.9c-0.78,0-1.58,0.44-2.22,1l0,6.38c0,0.36-0.16,0.5-0.5,0.5l-1.4,0c-0.36,0-0.52-0.14-0.52-0.5l0-8.74c0-0.32,0.18-0.46,0.48-0.46l1.3,0c0.3,0,0.48,0.1,0.5,0.38l0.02,0.5c0.82-0.72,1.9-1.14,2.94-1.14c1.22,0,2.08,0.54,2.54,1.3c0.9-0.86,2.2-1.3,3.42-1.3c1.46,0,2.38,0.72,2.8,1.5c0.38,0.74,0.48,1.62,0.48,2.9l0,5.06z M58.23,30.3c0,0.36-0.14,0.5-0.48,0.5l-1.4,0c-0.36,0-0.52-0.14-0.52-0.5l0-5.48c0-1.08-0.28-1.9-1.5-1.9c-0.76,0-1.64,0.4-2.26,0.9c0.04,0.18,0.08,2.86,0.08,3.14l0,3.34c0,0.36-0.14,0.5-0.48,0.5l-1.32,0c-0.36,0-0.52-0.14-0.52-0.5l0-5.48c0-1.06-0.22-1.9-1.44-1.9c-0.78,0-1.58,0.44-2.22,1l0,6.38c0,0.36-0.16,0.5-0.5,0.5l-1.4,0c-0.36,0-0.52-0.14-0.52-0.5l0-8.74c0-0.32,0.18-0.46,0.48-0.46l1.3,0c0.3,0,0.48,0.1,0.5,0.38l0.02,0.5c0.82-0.72,1.9-1.14,2.94-1.14c1.22,0,2.08,0.54,2.54,1.3c0.9-0.86,2.2-1.3,3.42-1.3c1.46,0,2.38,0.72,2.8,1.5c0.38,0.74,0.48,1.62,0.48,2.9l0,5.06z M71.36,30.42c0,0.24-0.16,0.38-0.4,0.38l-0.96,0c-1.04,0-1.5-0.5-1.64-1.18l-0.04,0c-0.5,0.74-1.8,1.42-2.9,1.42c-2.82,0-4.1-2.32-4.1-4.92c0-3.46,2.08-5.28,4.32-5.28c1.06,0,2.06,0.48,2.56,1.16l0.04-0.54c0.02-0.22,0.18-0.36,0.42-0.36l1.4,0c0.26,0,0.42,0.14,0.42,0.44l0,6.94c0,0.28,0.04,0.48,0.12,0.58c0.06,0.06,0.14,0.08,0.24,0.08l0.16,0c0.24,0,0.36,0.08,0.36,0.34l0,0.94z M68.06,27.7l0-3.86c-0.4-0.58-1.22-1.02-1.98-1.02c-1.22,0-2.26,1.04-2.26,3.14c0,1.68,0.64,3.1,2.12,3.1c0.98,0,1.82-0.74,2.12-1.36z M79.77,21.18c0,0.06,0,0.12-0.02,0.18l-0.22,1.42c-0.02,0.18-0.12,0.26-0.28,0.26l-0.08,0c-0.16-0.04-0.36-0.06-0.54-0.06c-0.68,0-1.42,0.36-1.92,0.96l0,6.36c0,0.32-0.14,0.5-0.48,0.5l-1.46,0c-0.32,0-0.48-0.16-0.48-0.5l0-6.24l0-2.46c0-0.4,0.2-0.5,0.5-0.5l1.28,0c0.32,0,0.5,0.1,0.5,0.38l0.02,0.64c0.62-0.78,1.3-1.28,2.42-1.28c0.16,0,0.38,0.04,0.56,0.08c0.14,0.04,0.2,0.1,0.2,0.26z M91.14,21.38c0,0.06-0.02,0.12-0.04,0.2l-3.94,10.36c-0.9,2.38-2.02,3.22-4.42,3.22c-0.38,0-0.72-0.02-1.06-0.1c-0.22-0.04-0.3-0.16-0.3-0.34c0-0.06,0.02-0.1,0.02-0.18l0.14-1.04c0.04-0.26,0.14-0.36,0.36-0.36l0.12,0c0.24,0.02,0.48,0.06,0.68,0.06c1.24,0,1.76-0.44,2.16-1.38l0.38-0.9l-3.64-9.38c-0.02-0.06-0.04-0.1-0.04-0.16c0-0.16,0.12-0.28,0.3-0.28l1.92,0c0.28,0,0.42,0.14,0.5,0.34l2.22,6.62l2.1-6.5c0.1-0.32,0.26-0.46,0.6-0.46l1.62,0c0.2,0,0.32,0.12,0.32,0.28z M111.32,17.26c0,0.06-0.02,0.12-0.04,0.2l-4.7,12.9c-0.1,0.28-0.32,0.44-0.62,0.44l-1.34,0c-0.38,0-0.56-0.16-0.68-0.5l-4.92-12.78c-0.04-0.08-0.06-0.16-0.06-0.24c0-0.2,0.16-0.32,0.4-0.32l1.76,0c0.42,0,0.62,0.14,0.72,0.42l3.54,9.88l0.06,0l3.34-9.82c0.12-0.36,0.3-0.48,0.76-0.48l1.4,0c0.26,0,0.38,0.12,0.38,0.3z M123.53,30.42c0,0.24-0.16,0.38-0.4,0.38l-0.96,0c-1.04,0-1.5-0.5-1.64-1.18l-0.04,0c-0.5,0.74-1.8,1.42-2.9,1.42c-2.82,0-4.1-2.32-4.1-4.92c0-3.46,2.08-5.28,4.32-5.28c1.06,0,2.06,0.48,2.56,1.16l0.04-0.54c0.02-0.22,0.18-0.36,0.42-0.36l1.4,0c0.26,0,0.42,0.14,0.42,0.44l0,6.94c0,0.28,0.04,0.48,0.12,0.58c0.06,0.06,0.14,0.08,0.24,0.08l0.16,0c0.24,0,0.36,0.08,0.36,0.34l0,0.94z M120.23,27.7l0-3.86c-0.4-0.58-1.22-1.02-1.98-1.02c-1.22,0-2.26,1.04-2.26,3.14c0,1.68,0.64,3.1,2.12,3.1c0.98,0,1.82-0.74,2.12-1.36z M135.08,30.24c0,0.42-0.12,0.56-0.52,0.56l-1.28,0c-0.26,0-0.46-0.14-0.48-0.4l-0.02-0.5c-0.92,0.74-2.02,1.14-3.18,1.14c-2.24,0-3.16-1.42-3.16-3.58l0-5.9c0-0.34,0.2-0.46,0.52-0.46l1.4,0c0.32,0,0.5,0.1,0.5,0.46l0,5.48c0,1.1,0.28,1.86,1.48,1.86c0.76,0,1.72-0.42,2.32-0.96l0-6.38c0-0.34,0.18-0.46,0.5-0.46l1.42,0c0.32,0,0.5,0.1,0.5,0.46l0,8.68z M141.19,30.3c0,0.34-0.16,0.5-0.44,0.5l-1.52,0c-0.28,0-0.46-0.14-0.46-0.48l0-13.12c0-0.34,0.14-0.44,0.4-0.48l1.44-0.2c0.04,0,0.1-0.02,0.14-0.02c0.24,0,0.44,0.12,0.44,0.44l0,13.36z M150.94,30.2c0,0.2-0.1,0.3-0.3,0.38c-0.62,0.26-1.44,0.46-2.24,0.46c-1.02,0-1.9-0.26-2.4-0.84c-0.62-0.7-0.64-1.52-0.64-2.98l0-4.46l-0.94,0c-0.38,0-0.44-0.08-0.44-0.5l0-0.76c0-0.24,0.12-0.4,0.36-0.4l1.02,0l0-2.18c0-0.34,0.18-0.44,0.5-0.48l1.44-0.18l0.1,0c0.26,0,0.38,0.14,0.38,0.44l0,2.4l2.26,0c0.24,0,0.38,0.08,0.38,0.34l0,0.94c0,0.24-0.16,0.38-0.4,0.38l-2.24,0l0,4.58c0,0.6,0.04,1.04,0.26,1.36c0.18,0.26,0.46,0.42,0.94,0.42c0.5,0,0.92-0.12,1.28-0.24c0.08-0.02,0.14-0.04,0.2-0.04c0.14,0,0.22,0.08,0.26,0.24l0.2,1c0.02,0.06,0.02,0.08,0.02,0.12z"/><path fill="#" d=""/></svg>
